<svg width="720" height="720" xmlns="http://www.w3.org/2000/svg" xmlns:xlink="http://www.w3.org/1999/xlink" overflow="hidden"><g><rect x="0" y="0" width="720" height="720" fill="#FFFFFF"/><path d="M79 426.5C79 273.241 203.241 149 356.5 149 509.759 149 634 273.241 634 426.5 634 579.759 509.759 704 356.5 704 203.241 704 79 579.759 79 426.5Z" stroke="#E97132" stroke-width="2" stroke-miterlimit="8" fill="#E97132" fill-rule="evenodd"/><path d="M194 434C194 344.53 266.53 272 356 272 445.47 272 518 344.53 518 434 518 523.47 445.47 596 356 596 266.53 596 194 523.47 194 434Z" stroke="#FFFFFF" stroke-width="2" stroke-miterlimit="8" fill="#FFFFFF" fill-rule="evenodd"/><path d="M403 551.269 545.419 694 622 620.572 479.367 478 403 551.269Z" stroke="#FD7A00" stroke-width="2" stroke-miterlimit="8" fill="#FD7A00" fill-rule="evenodd"/><path d="M394 521C394 491.729 418.624 468 449 468 479.376 468 504 491.729 504 521 504 550.271 479.376 574 449 574 418.624 574 394 550.271 394 521Z" stroke="#FD7A00" stroke-width="2" stroke-miterlimit="8" fill="#FD7A00" fill-rule="evenodd"/><path d="M523 653C523 624.833 547.848 602 578.5 602 609.152 602 634 624.833 634 653 634 681.167 609.152 704 578.5 704 547.848 704 523 681.167 523 653Z" stroke="#FD7A00" stroke-width="2" stroke-miterlimit="8" fill="#FD7A00" fill-rule="evenodd"/><path d="M8.81969 56.4922 140.898 186.685C166.811 214.15 154.792 204.337 169.388 218.165 183.984 231.993 199.28 262.781 209.53 254.932 219.779 247.084 221.351 213.988 225.795 174.192 227.706 131.088 243.292 65.6144 228.76 57.0767 214.229 48.5389 192.494 121.937 162.691 112.007 131.783 93.5022 87.815 70.7632 62.001 57.9329 36.187 45.1027-6.96424 22.9259 8.81969 56.4922Z" stroke="#FD7A00" stroke-width="2" stroke-miterlimit="8" fill="#FD7A00" fill-rule="evenodd"/><path d="M498.468 267.297 581.383 162.701C611.876 141.644 626.558 125.006 642.381 112.807 658.204 100.609 716.718 55.9182 713.361 43.7426 710.003 31.5669 643.685 53.3637 606.116 49.9218 553.947 52.633 537.811 35.1366 526.367 48.3556 514.924 61.5745 569.884 91.8503 552.659 120.52 528.035 148.566 501.966 192.228 483.563 216.191 465.159 240.154 466.02 276.662 498.468 267.297Z" stroke="#FD7A00" stroke-width="2" stroke-miterlimit="8" fill="#FD7A00" fill-rule="evenodd"/></g></svg>