<svg version="1.1" id="Layer_1" xmlns="http://www.w3.org/2000/svg" xmlns:xlink="http://www.w3.org/1999/xlink" x="0px" y="0px"
	 width="100%" viewBox="0 0 1441 1441" enable-background="new 0 0 1441 1441" xml:space="preserve">
<path fill="none" opacity="1.000000" stroke="none" 
	d="
M1442.000000,512.000000 
	C1442.000000,822.306519 1442.000000,1132.113037 1442.000000,1441.959717 
	C961.735107,1441.959717 481.470215,1441.959717 1.102649,1441.959717 
	C1.102649,961.776733 1.102649,481.553406 1.102649,1.165049 
	C481.333282,1.165049 961.666626,1.165049 1442.000000,1.165049 
	C1442.000000,171.196701 1442.000000,341.348358 1442.000000,512.000000 
M1015.731628,347.838959 
	C1015.731628,347.838959 1015.796875,347.726929 1015.260254,347.921082 
	C1015.107605,348.260254 1014.954895,348.599457 1014.357178,349.140930 
	C1014.189636,349.579071 1014.022156,350.017212 1013.308655,350.790710 
	C1013.154968,351.176331 1013.001282,351.561981 1012.933533,351.935303 
	C1012.933533,351.935303 1012.890015,351.860138 1012.340515,352.148071 
	C1012.110596,352.702728 1011.880615,353.257385 1011.789612,353.784058 
	C1011.789612,353.784058 1011.688904,353.684265 1011.105957,353.884430 
	C1010.742920,354.591675 1010.379944,355.298920 1009.997559,356.000244 
	C1009.997559,356.000244 1010.007751,356.018280 1009.459778,356.290131 
	C1009.204163,356.833649 1008.948486,357.377167 1008.202087,358.158081 
	C1007.799683,358.526154 1007.397217,358.894226 1006.338928,358.978973 
	C979.983887,343.264740 952.739136,329.322235 924.218689,317.951660 
	C838.808167,283.899963 750.348633,271.651093 658.869385,280.769897 
	C617.963440,284.847443 578.065857,293.475830 539.054199,306.376526 
	C510.058044,315.965302 482.233002,328.283508 454.942932,341.213593 
	C454.876831,340.113739 454.810730,339.013916 455.028137,337.128754 
	C455.240143,334.085785 455.452148,331.042786 455.905304,327.331238 
	C455.863251,326.864441 455.821228,326.397644 456.035095,325.119598 
	C456.053864,323.162933 456.072601,321.206299 456.490417,318.532166 
	C456.594238,315.999512 456.698029,313.466888 457.044342,310.102692 
	C457.391968,305.124939 457.739563,300.147217 458.509338,294.507263 
	C458.620850,292.653534 458.732361,290.799835 459.099121,288.150787 
	C459.423706,284.200439 459.748260,280.250061 460.421082,275.894501 
	C460.307190,275.415314 460.193298,274.936096 460.346130,274.235626 
	C460.346130,274.235626 460.313446,273.890564 460.681610,273.382080 
	C460.735535,272.567291 460.789490,271.752502 461.092346,270.151703 
	C461.405670,266.825134 461.718994,263.498596 462.308716,259.933685 
	C462.486481,259.685211 462.449066,259.475647 462.560638,258.598328 
	C462.553040,258.076385 462.545410,257.554443 462.845276,256.370087 
	C462.825195,255.888260 462.805115,255.406418 463.042236,254.208008 
	C463.186279,252.473648 463.330292,250.739273 463.815918,248.364761 
	C463.802155,247.886322 463.788391,247.407867 464.061707,246.268631 
	C464.055420,245.557632 464.049133,244.846634 464.449890,243.493378 
	C464.563324,241.969452 464.676758,240.445511 465.047333,238.205093 
	C465.182892,236.471069 465.318481,234.737030 465.794495,232.364731 
	C465.787170,231.887726 465.779846,231.410721 466.073212,230.169525 
	C466.139038,228.809113 466.204865,227.448685 466.660767,225.546021 
	C466.696320,224.670670 466.731903,223.795319 467.037170,222.124268 
	C467.478119,217.783920 467.919098,213.443588 468.749237,208.563446 
	C468.766022,207.686966 468.782806,206.810471 469.061676,205.137421 
	C469.425537,201.111282 469.789398,197.085159 470.607208,192.460999 
	C470.665100,190.949371 470.722992,189.437759 471.052155,187.118622 
	C471.383606,182.483582 471.715057,177.848557 472.330017,172.958862 
	C472.510895,172.696976 472.468933,172.478317 472.576141,171.535812 
	C472.559143,170.699326 472.542145,169.862823 472.837311,168.252808 
	C472.832825,167.147064 472.828369,166.041306 473.069336,164.080963 
	C473.296326,158.057678 473.523315,152.034409 473.987335,145.108856 
	C473.892090,141.068527 473.796844,137.028198 473.935669,132.142960 
	C473.570801,128.447174 473.205902,124.751404 472.951721,120.319016 
	C472.668304,119.145699 472.384857,117.972382 472.223877,116.198776 
	C472.105011,115.813400 471.986115,115.428024 472.004547,114.477119 
	C471.802734,113.956558 471.600952,113.435997 471.390656,112.139175 
	C470.998322,111.218147 470.605988,110.297119 470.486053,108.936974 
	C470.365997,108.624252 470.245941,108.311531 470.080048,107.316116 
	C469.776398,106.996819 469.472748,106.677513 469.421722,105.911652 
	C469.291687,105.605232 469.161621,105.298820 468.990967,104.348389 
	C468.716003,104.032204 468.441040,103.716011 468.226837,102.722778 
	C462.605042,90.983223 453.865356,88.606544 443.793854,96.730888 
	C439.055328,100.553329 434.700226,105.150551 431.157593,110.102280 
	C418.273834,128.110611 406.008209,146.561340 393.115845,164.563339 
	C383.589539,177.865204 373.181610,190.518906 358.857086,199.069092 
	C346.575928,206.399612 334.240234,208.037354 321.261719,199.821640 
	C308.745819,191.898712 295.866364,184.478699 282.758514,177.574585 
	C225.278488,147.298828 167.763626,117.085030 110.032288,87.292747 
	C88.882149,76.378204 67.382797,65.920784 44.240757,59.751335 
	C37.275150,57.894371 29.823427,57.222076 22.589371,57.191402 
	C15.422516,57.161007 10.463976,61.932491 10.185359,68.499428 
	C9.697008,80.009735 12.453383,90.855263 20.826874,99.163918 
	C59.028095,137.069351 97.446243,174.756119 135.764343,212.543823 
	C175.395447,251.626404 215.214859,290.521423 254.530304,329.919220 
	C275.106445,350.538452 294.815186,372.025208 314.839539,393.192169 
	C322.593170,401.388214 330.136536,409.783173 337.995331,418.599396 
	C338.310425,418.776459 338.625519,418.953522 338.950531,419.048309 
	C338.950531,419.048309 338.869232,419.064270 339.018890,419.600159 
	C339.324493,419.790588 339.630127,419.981018 340.140991,420.717407 
	C340.337494,421.437866 340.533966,422.158356 340.134247,423.151978 
	C291.410187,467.374207 251.672012,518.617798 221.206100,576.893433 
	C175.967850,663.425720 154.868637,755.586914 157.696869,853.255127 
	C159.216110,905.719910 167.776810,956.965027 183.926392,1006.853821 
	C213.341263,1097.721558 262.757141,1176.078491 332.069366,1241.857788 
	C376.304230,1283.837769 426.069580,1317.645874 481.391266,1343.296753 
	C552.972900,1376.487183 628.289612,1393.357666 707.096924,1394.818970 
	C739.295715,1395.416138 771.311218,1393.036621 803.128479,1388.026733 
	C871.834595,1377.208496 936.253601,1354.323730 996.371338,1319.351196 
	C1005.285583,1314.165527 1014.112305,1308.829590 1023.413208,1304.135376 
	C1035.660034,1316.393555 1047.939209,1328.619751 1060.128418,1340.934937 
	C1062.814331,1343.648560 1065.334961,1346.559326 1067.667725,1349.583008 
	C1076.720825,1361.317749 1087.439697,1371.088135 1100.281494,1378.607788 
	C1143.054199,1403.654053 1198.487793,1399.982178 1236.492188,1368.175293 
	C1268.692871,1341.225586 1280.925171,1306.639404 1270.992676,1265.304565 
	C1266.707397,1247.470703 1257.185059,1232.130859 1244.583252,1219.002319 
	C1228.663452,1202.416992 1212.144287,1186.406738 1195.859375,1170.172729 
	C1193.038940,1167.361206 1190.098389,1164.670288 1187.010864,1161.400146 
	C1186.695190,1161.219971 1186.379639,1161.039917 1186.055420,1160.946045 
	C1186.055420,1160.946045 1186.140625,1160.929810 1185.987061,1160.400391 
	C1185.679199,1160.221924 1185.371460,1160.043579 1185.052368,1159.947754 
	C1185.052368,1159.947754 1185.134644,1159.933960 1184.983398,1159.403442 
	C1184.675293,1159.225586 1184.367188,1159.047729 1184.048462,1158.951782 
	C1184.048462,1158.951782 1184.129761,1158.937988 1183.976929,1158.408813 
	C1183.669189,1158.231079 1183.361450,1158.053467 1183.043701,1157.956543 
	C1183.043701,1157.956543 1183.124023,1157.943970 1182.974854,1157.413208 
	C1182.667358,1157.234863 1182.359741,1157.056519 1182.041748,1156.958496 
	C1182.041748,1156.958496 1182.121704,1156.945923 1181.973511,1156.414795 
	C1181.666016,1156.236450 1181.358643,1156.057983 1181.040527,1155.959717 
	C1181.040527,1155.959717 1181.120117,1155.946777 1180.972778,1155.415527 
	C1180.665405,1155.237061 1180.358154,1155.058594 1180.040161,1154.959961 
	C1180.040161,1154.959961 1180.119751,1154.947144 1179.972656,1154.415771 
	C1179.665283,1154.237305 1179.357788,1154.058838 1179.040161,1153.959961 
	C1179.040161,1153.959961 1179.119629,1153.947632 1178.972168,1153.416504 
	C1178.665161,1153.237061 1178.358154,1153.057617 1178.039062,1152.959595 
	C1178.039062,1152.959595 1178.121216,1152.953979 1177.978638,1152.391113 
	C1177.690796,1152.140503 1177.403076,1151.889893 1177.266846,1151.370117 
	C1177.266846,1151.370117 1177.187134,1151.071777 1177.681030,1150.627563 
	C1195.934692,1123.487305 1211.999756,1095.129028 1225.406860,1065.272827 
	C1254.882568,999.633362 1271.052979,930.849060 1273.908081,858.984131 
	C1275.559326,817.421082 1272.749146,776.145264 1265.215210,735.175293 
	C1253.597412,671.997803 1231.747437,612.629333 1199.642212,557.036133 
	C1168.810059,503.647125 1130.119995,456.676941 1083.945068,415.404816 
	C1083.950684,415.204285 1083.956177,415.003784 1084.472168,414.555969 
	C1084.720093,414.057983 1084.968018,413.560028 1085.652832,412.873047 
	C1085.913452,412.649780 1086.035645,412.366791 1086.560669,411.752594 
	C1086.804077,411.215820 1087.047485,410.679047 1087.144043,410.109436 
	C1087.144043,410.109436 1087.166992,410.258209 1087.717896,410.109344 
	C1087.886475,409.780914 1088.054932,409.452484 1088.107666,409.097595 
	C1088.107666,409.097595 1088.126587,409.214905 1088.667725,409.041321 
	C1088.833862,408.712189 1089.000000,408.383057 1089.737183,407.725098 
	C1114.702393,376.291351 1139.634277,344.831116 1164.687134,313.467560 
	C1167.036743,310.526154 1169.954102,307.942749 1172.941162,305.622162 
	C1189.903564,292.444550 1207.634888,280.169983 1223.859375,266.147278 
	C1259.138428,235.655869 1294.453247,205.268997 1331.355591,176.709290 
	C1360.597778,154.077972 1389.020508,130.333038 1414.041382,102.954247 
	C1420.927979,95.418716 1427.046387,86.859268 1431.928955,77.903641 
	C1436.923584,68.742546 1432.873413,61.830780 1422.448730,60.301636 
	C1415.261108,59.247334 1407.747192,58.634399 1400.585815,59.511765 
	C1376.645020,62.444820 1352.830200,66.393906 1328.905029,69.471161 
	C1301.358154,73.014252 1273.792725,76.566170 1246.141113,79.076538 
	C1232.275879,80.335297 1218.188354,79.675117 1204.224854,79.196373 
	C1184.111084,78.506752 1163.923828,78.063110 1143.944946,75.888969 
	C1125.460205,73.877419 1107.240845,69.521767 1088.841675,66.593399 
	C1076.961548,64.702599 1065.492920,65.456551 1056.422607,75.010986 
	C1051.929321,79.744041 1049.848145,85.298996 1052.145630,91.477982 
	C1054.156250,96.885292 1056.515747,102.404045 1059.893921,107.014191 
	C1068.349487,118.553726 1077.524048,129.564117 1086.311401,140.863617 
	C1097.068481,154.696075 1107.612305,168.690262 1112.188599,186.049362 
	C1115.674072,199.270767 1114.565674,211.952316 1106.135376,223.125519 
	C1087.593506,247.700180 1068.464233,271.838654 1050.244873,296.647369 
	C1038.238892,312.995544 1027.400146,330.200989 1015.705261,347.301453 
	C1015.705261,347.301453 1015.656250,347.733490 1015.731628,347.838959 
z"/>
<path fill="#D97843" opacity="1.000000" stroke="none" 
	d="
M1022.979492,1303.563110 
	C1014.112305,1308.829590 1005.285583,1314.165527 996.371338,1319.351196 
	C936.253601,1354.323730 871.834595,1377.208496 803.128479,1388.026733 
	C771.311218,1393.036621 739.295715,1395.416138 707.096924,1394.818970 
	C628.289612,1393.357666 552.972900,1376.487183 481.391266,1343.296753 
	C426.069580,1317.645874 376.304230,1283.837769 332.069366,1241.857788 
	C262.757141,1176.078491 213.341263,1097.721558 183.926392,1006.853821 
	C167.776810,956.965027 159.216110,905.719910 157.696869,853.255127 
	C154.868637,755.586914 175.967850,663.425720 221.206100,576.893433 
	C251.672012,518.617798 291.410187,467.374207 340.798737,423.069794 
	C342.180450,423.379028 343.107513,423.600250 343.583588,424.187256 
	C351.709595,434.205566 359.643646,444.382538 367.897644,454.293304 
	C377.641357,465.992798 386.761597,478.415558 397.783386,488.792084 
	C410.039154,500.330261 418.823608,501.515961 428.676666,486.509003 
	C432.710083,480.365784 435.321503,472.926361 437.052765,465.710236 
	C440.582672,450.997040 443.428314,436.092834 445.874329,421.155731 
	C447.525299,411.073883 448.001587,400.800232 449.021057,390.614197 
	C449.678650,384.043640 450.347198,377.474060 451.050049,370.908203 
	C451.682281,365.001801 452.282257,359.089752 453.061157,353.202026 
	C453.556000,349.461121 454.351715,345.760071 455.012512,342.041138 
	C482.233002,328.283508 510.058044,315.965302 539.054199,306.376526 
	C578.065857,293.475830 617.963440,284.847443 658.869385,280.769897 
	C750.348633,271.651093 838.808167,283.899963 924.218689,317.951660 
	C952.739136,329.322235 979.983887,343.264740 1006.623596,359.450317 
	C1004.005493,364.133484 1001.139771,368.371429 998.192261,372.551666 
	C991.917847,381.449951 985.732239,390.415070 979.273682,399.178436 
	C966.447449,416.581787 952.911438,433.566528 948.038940,455.373260 
	C944.249023,472.335175 941.460449,489.123322 950.599548,505.592163 
	C954.949280,513.430420 961.494507,518.899414 969.454651,520.510864 
	C977.998474,522.240417 987.186523,521.086670 996.067383,520.654480 
	C998.465820,520.537842 1001.442627,519.046387 1003.002747,517.208679 
	C1010.553711,508.314606 1017.724426,499.097107 1025.007080,489.976044 
	C1034.822021,477.683502 1044.673218,465.419098 1054.399536,453.056519 
	C1060.924438,444.763000 1067.196167,436.270538 1073.706421,427.965240 
	C1076.925415,423.858765 1080.427612,419.974182 1083.801636,415.989227 
	C1130.119995,456.676941 1168.810059,503.647125 1199.642212,557.036133 
	C1231.747437,612.629333 1253.597412,671.997803 1265.215210,735.175293 
	C1272.749146,776.145264 1275.559326,817.421082 1273.908081,858.984131 
	C1271.052979,930.849060 1254.882568,999.633362 1225.406860,1065.272827 
	C1211.999756,1095.129028 1195.934692,1123.487305 1177.111816,1150.710571 
	C1169.649292,1143.710449 1162.859253,1136.523193 1155.841064,1129.566284 
	C1142.273682,1116.117432 1128.502563,1102.873901 1114.957886,1089.402588 
	C1103.534180,1078.040771 1092.387207,1066.401123 1080.982544,1055.019897 
	C1061.791138,1035.867432 1042.451050,1016.863770 1023.274963,997.696045 
	C1019.605896,994.028442 1016.405579,989.891907 1013.035400,985.614746 
	C1031.132690,945.625977 1040.399658,903.931213 1041.682617,860.504211 
	C1042.808716,822.388855 1037.625244,785.050354 1025.335693,748.901978 
	C997.507935,667.050110 945.599365,605.019958 869.816956,563.628052 
	C806.316101,528.944397 738.133667,517.602478 666.687561,528.150330 
	C593.525391,538.951538 531.106995,571.431030 479.682678,624.631226 
	C433.086792,672.836182 404.194580,730.137390 392.767731,796.199524 
	C384.075500,846.451904 387.044342,896.118286 401.691650,944.897522 
	C420.491638,1007.506287 455.041260,1060.015381 505.256104,1101.924927 
	C563.039856,1150.151611 629.835815,1175.170898 704.963684,1177.952026 
	C727.323730,1178.779907 749.542603,1177.026367 771.607056,1173.162842 
	C801.986633,1167.843384 831.024475,1158.471191 858.636658,1144.748779 
	C859.797241,1144.172119 860.295166,1142.261963 861.438232,1141.035889 
	C862.697266,1142.411255 863.458435,1143.882324 864.566650,1145.013184 
	C881.093323,1161.875244 897.636047,1178.721802 914.238647,1195.509155 
	C924.594727,1205.980469 935.049500,1216.354370 945.475708,1226.756226 
	C951.199463,1232.466553 956.956665,1238.143188 962.697205,1243.836670 
	C969.131104,1250.217896 975.581116,1256.583008 981.990906,1262.988281 
	C987.924133,1268.917236 993.768982,1274.935181 999.733582,1280.832275 
	C1007.440247,1288.451660 1015.227112,1295.989868 1022.979492,1303.563110 
z"/>
<path fill="#EC8131" opacity="1.000000" stroke="none" 
	d="
M1012.988953,985.971802 
	C1016.405579,989.891907 1019.605896,994.028442 1023.274963,997.696045 
	C1042.451050,1016.863770 1061.791138,1035.867432 1080.982544,1055.019897 
	C1092.387207,1066.401123 1103.534180,1078.040771 1114.957886,1089.402588 
	C1128.502563,1102.873901 1142.273682,1116.117432 1155.841064,1129.566284 
	C1162.859253,1136.523193 1169.649292,1143.710449 1176.864746,1150.932617 
	C1177.187134,1151.071777 1177.266846,1151.370117 1177.243286,1151.799805 
	C1177.520264,1152.470947 1177.820679,1152.712402 1178.121216,1152.953979 
	C1178.121216,1152.953979 1178.039062,1152.959595 1178.135254,1153.173218 
	C1178.527588,1153.573853 1178.823608,1153.760742 1179.119629,1153.947632 
	C1179.119629,1153.947632 1179.040161,1153.959961 1179.135986,1154.174072 
	C1179.527832,1154.574463 1179.823730,1154.760742 1180.119751,1154.947144 
	C1180.119751,1154.947144 1180.040161,1154.959961 1180.135742,1155.174072 
	C1180.527710,1155.574463 1180.823853,1155.760620 1181.120117,1155.946777 
	C1181.120117,1155.946777 1181.040527,1155.959717 1181.136230,1156.173828 
	C1181.528564,1156.573975 1181.825195,1156.759888 1182.121704,1156.945923 
	C1182.121704,1156.945923 1182.041748,1156.958496 1182.137207,1157.172852 
	C1182.529907,1157.572754 1182.826904,1157.758423 1183.124023,1157.943970 
	C1183.124023,1157.943970 1183.043701,1157.956543 1183.139160,1158.170898 
	C1183.532959,1158.569580 1183.831299,1158.753784 1184.129761,1158.937988 
	C1184.129761,1158.937988 1184.048462,1158.951782 1184.143066,1159.166748 
	C1184.536743,1159.565796 1184.835693,1159.749878 1185.134644,1159.933960 
	C1185.134644,1159.933960 1185.052368,1159.947754 1185.146484,1160.163330 
	C1185.540527,1160.562622 1185.840576,1160.746216 1186.140625,1160.929810 
	C1186.140625,1160.929810 1186.055420,1160.946045 1186.158325,1161.166748 
	C1186.578613,1161.566162 1186.895874,1161.744873 1187.213257,1161.923584 
	C1190.098389,1164.670288 1193.038940,1167.361206 1195.859375,1170.172729 
	C1212.144287,1186.406738 1228.663452,1202.416992 1244.583252,1219.002319 
	C1257.185059,1232.130859 1266.707397,1247.470703 1270.992676,1265.304565 
	C1280.925171,1306.639404 1268.692871,1341.225586 1236.492188,1368.175293 
	C1198.487793,1399.982178 1143.054199,1403.654053 1100.281494,1378.607788 
	C1087.439697,1371.088135 1076.720825,1361.317749 1067.667725,1349.583008 
	C1065.334961,1346.559326 1062.814331,1343.648560 1060.128418,1340.934937 
	C1047.939209,1328.619751 1035.660034,1316.393555 1023.196350,1303.849243 
	C1015.227112,1295.989868 1007.440247,1288.451660 999.733582,1280.832275 
	C993.768982,1274.935181 987.924133,1268.917236 981.990906,1262.988281 
	C975.581116,1256.583008 969.131104,1250.217896 962.697205,1243.836670 
	C956.956665,1238.143188 951.199463,1232.466553 945.475708,1226.756226 
	C935.049500,1216.354370 924.594727,1205.980469 914.238647,1195.509155 
	C897.636047,1178.721802 881.093323,1161.875244 864.566650,1145.013184 
	C863.458435,1143.882324 862.697266,1142.411255 861.401733,1141.039429 
	C861.028809,1140.980347 861.038757,1140.908203 860.990356,1140.602051 
	C860.325867,1139.856567 859.709717,1139.417358 858.778015,1138.863403 
	C856.317322,1136.461792 854.172241,1134.174805 851.982422,1131.585449 
	C851.332092,1130.845703 850.726501,1130.408203 849.804016,1129.854614 
	C836.340942,1116.437866 823.194702,1103.137329 810.003540,1089.539307 
	C809.534058,1088.889648 809.109497,1088.537476 808.749268,1088.193359 
	C808.813538,1088.201416 808.727112,1088.298218 808.791321,1087.970947 
	C808.315735,1087.089966 807.776001,1086.536255 807.130798,1085.636963 
	C806.057617,1083.552368 805.112793,1081.800049 804.118774,1080.076172 
	C787.015869,1050.418091 783.900635,1019.368225 796.370056,987.463318 
	C813.038635,944.814270 854.827271,916.836548 901.610352,917.473633 
	C942.780273,918.034302 975.126526,935.733704 998.143311,970.323486 
	C1002.067749,976.221069 1007.989746,980.789368 1012.988953,985.971802 
z"/>
<path fill="#EC8132" opacity="1.000000" stroke="none" 
	d="
M454.977722,341.627380 
	C454.351715,345.760071 453.556000,349.461121 453.061157,353.202026 
	C452.282257,359.089752 451.682281,365.001801 451.050049,370.908203 
	C450.347198,377.474060 449.678650,384.043640 449.021057,390.614197 
	C448.001587,400.800232 447.525299,411.073883 445.874329,421.155731 
	C443.428314,436.092834 440.582672,450.997040 437.052765,465.710236 
	C435.321503,472.926361 432.710083,480.365784 428.676666,486.509003 
	C418.823608,501.515961 410.039154,500.330261 397.783386,488.792084 
	C386.761597,478.415558 377.641357,465.992798 367.897644,454.293304 
	C359.643646,444.382538 351.709595,434.205566 343.583588,424.187256 
	C343.107513,423.600250 342.180450,423.379028 341.096863,422.933228 
	C340.533966,422.158356 340.337494,421.437866 339.954132,420.182800 
	C339.467926,419.453583 339.168579,419.258911 338.869232,419.064270 
	C338.869232,419.064270 338.950531,419.048309 338.842529,418.828003 
	C338.414917,418.434265 338.095306,418.260895 337.775696,418.087494 
	C330.136536,409.783173 322.593170,401.388214 314.839539,393.192169 
	C294.815186,372.025208 275.106445,350.538452 254.530304,329.919220 
	C215.214859,290.521423 175.395447,251.626404 135.764343,212.543823 
	C97.446243,174.756119 59.028095,137.069351 20.826874,99.163918 
	C12.453383,90.855263 9.697008,80.009735 10.185359,68.499428 
	C10.463976,61.932491 15.422516,57.161007 22.589371,57.191402 
	C29.823427,57.222076 37.275150,57.894371 44.240757,59.751335 
	C67.382797,65.920784 88.882149,76.378204 110.032288,87.292747 
	C167.763626,117.085030 225.278488,147.298828 282.758514,177.574585 
	C295.866364,184.478699 308.745819,191.898712 321.261719,199.821640 
	C334.240234,208.037354 346.575928,206.399612 358.857086,199.069092 
	C373.181610,190.518906 383.589539,177.865204 393.115845,164.563339 
	C406.008209,146.561340 418.273834,128.110611 431.157593,110.102280 
	C434.700226,105.150551 439.055328,100.553329 443.793854,96.730888 
	C453.865356,88.606544 462.605042,90.983223 468.221252,103.385345 
	C468.487610,104.362747 468.759613,104.677574 469.031586,104.992401 
	C469.161621,105.298820 469.291687,105.605232 469.324524,106.475845 
	C469.526825,107.359619 469.826385,107.679214 470.125916,107.998810 
	C470.245941,108.311531 470.365997,108.624252 470.294281,109.578278 
	C470.534729,111.118202 470.966949,112.016815 471.399170,112.915436 
	C471.600952,113.435997 471.802734,113.956558 471.720886,114.922882 
	C471.345886,115.911896 471.254517,116.455162 471.163177,116.998428 
	C471.475922,116.931976 471.788666,116.865524 472.101410,116.799072 
	C472.384857,117.972382 472.668304,119.145699 472.634644,120.991959 
	C472.778900,125.439232 473.240234,129.213547 473.701599,132.987869 
	C473.796844,137.028198 473.892090,141.068527 473.495636,145.670258 
	C472.943939,152.466309 472.883911,158.700928 472.823914,164.935562 
	C472.828369,166.041306 472.832825,167.147064 472.335510,168.772247 
	C471.482788,175.503174 471.131836,181.714661 470.780853,187.926132 
	C470.722992,189.437759 470.665100,190.949371 470.057068,192.977966 
	C469.271179,197.641281 469.035400,201.787643 468.799622,205.933990 
	C468.782806,206.810471 468.766022,207.686966 468.189667,209.017838 
	C467.342529,213.954803 467.054993,218.437393 466.767456,222.919968 
	C466.731903,223.795319 466.696320,224.670670 466.146820,225.970428 
	C465.679413,227.907791 465.725983,229.420746 465.772522,230.933716 
	C465.779846,231.410721 465.787170,231.887726 465.319397,232.804138 
	C464.826233,235.136230 464.808197,237.028915 464.790161,238.921585 
	C464.676758,240.445511 464.563324,241.969452 464.214600,243.530579 
	C463.926239,243.411682 463.909912,243.223206 463.809326,243.108902 
	C463.715759,243.002563 463.532379,242.975296 463.388519,242.913223 
	C463.517212,244.251953 463.645935,245.590698 463.774658,246.929428 
	C463.788391,247.407867 463.802155,247.886322 463.336853,248.801300 
	C462.833557,251.133438 462.809265,253.029007 462.785004,254.924591 
	C462.805115,255.406418 462.825195,255.888260 462.352722,256.822693 
	C461.521271,261.829437 461.182373,266.383575 460.843445,270.937714 
	C460.789490,271.752502 460.735535,272.567291 460.148010,273.888092 
	C459.357574,279.244781 459.100739,284.095428 458.843872,288.946106 
	C458.732361,290.799835 458.620850,292.653534 458.050842,294.666443 
	C457.328827,300.195160 457.065308,305.564697 456.801819,310.934235 
	C456.698029,313.466888 456.594238,315.999512 456.239746,318.580933 
	C455.785706,318.441772 455.589111,318.244843 455.368958,318.079132 
	C455.345703,318.061615 455.093842,318.235199 455.099945,318.307281 
	C455.315094,320.849426 455.548462,323.390015 455.779205,325.930847 
	C455.821228,326.397644 455.863251,326.864441 455.431122,327.782349 
	C454.886200,331.460358 454.815430,334.687195 454.744629,337.914062 
	C454.810730,339.013916 454.876831,340.113739 454.977722,341.627380 
z"/>
<path fill="#EC8232" opacity="1.000000" stroke="none" 
	d="
M1083.873291,415.697021 
	C1080.427612,419.974182 1076.925415,423.858765 1073.706421,427.965240 
	C1067.196167,436.270538 1060.924438,444.763000 1054.399536,453.056519 
	C1044.673218,465.419098 1034.822021,477.683502 1025.007080,489.976044 
	C1017.724426,499.097107 1010.553711,508.314606 1003.002747,517.208679 
	C1001.442627,519.046387 998.465820,520.537842 996.067383,520.654480 
	C987.186523,521.086670 977.998474,522.240417 969.454651,520.510864 
	C961.494507,518.899414 954.949280,513.430420 950.599548,505.592163 
	C941.460449,489.123322 944.249023,472.335175 948.038940,455.373260 
	C952.911438,433.566528 966.447449,416.581787 979.273682,399.178436 
	C985.732239,390.415070 991.917847,381.449951 998.192261,372.551666 
	C1001.139771,368.371429 1004.005493,364.133484 1006.951538,359.591980 
	C1007.397217,358.894226 1007.799683,358.526154 1008.751160,357.937256 
	C1009.536072,357.150391 1009.771912,356.584351 1010.007812,356.018311 
	C1010.007751,356.018280 1009.997559,356.000244 1010.348633,355.952026 
	C1011.029480,355.163971 1011.359192,354.424133 1011.688904,353.684265 
	C1011.688904,353.684265 1011.789612,353.784058 1012.046021,353.718567 
	C1012.498291,353.055420 1012.694153,352.457764 1012.890015,351.860107 
	C1012.890015,351.860138 1012.933533,351.935303 1013.178223,351.791351 
	C1013.566833,351.250061 1013.710754,350.852722 1013.854675,350.455322 
	C1014.022156,350.017212 1014.189636,349.579071 1014.849365,348.939575 
	C1015.493408,348.401123 1015.645142,348.064026 1015.796875,347.726929 
	C1015.796875,347.726929 1015.731628,347.838959 1015.898682,347.820618 
	C1016.185059,347.745850 1016.304504,347.689453 1016.423889,347.633057 
	C1016.295532,347.429565 1016.167114,347.226074 1016.038818,347.022583 
	C1027.400146,330.200989 1038.238892,312.995544 1050.244873,296.647369 
	C1068.464233,271.838654 1087.593506,247.700180 1106.135376,223.125519 
	C1114.565674,211.952316 1115.674072,199.270767 1112.188599,186.049362 
	C1107.612305,168.690262 1097.068481,154.696075 1086.311401,140.863617 
	C1077.524048,129.564117 1068.349487,118.553726 1059.893921,107.014191 
	C1056.515747,102.404045 1054.156250,96.885292 1052.145630,91.477982 
	C1049.848145,85.298996 1051.929321,79.744041 1056.422607,75.010986 
	C1065.492920,65.456551 1076.961548,64.702599 1088.841675,66.593399 
	C1107.240845,69.521767 1125.460205,73.877419 1143.944946,75.888969 
	C1163.923828,78.063110 1184.111084,78.506752 1204.224854,79.196373 
	C1218.188354,79.675117 1232.275879,80.335297 1246.141113,79.076538 
	C1273.792725,76.566170 1301.358154,73.014252 1328.905029,69.471161 
	C1352.830200,66.393906 1376.645020,62.444820 1400.585815,59.511765 
	C1407.747192,58.634399 1415.261108,59.247334 1422.448730,60.301636 
	C1432.873413,61.830780 1436.923584,68.742546 1431.928955,77.903641 
	C1427.046387,86.859268 1420.927979,95.418716 1414.041382,102.954247 
	C1389.020508,130.333038 1360.597778,154.077972 1331.355591,176.709290 
	C1294.453247,205.268997 1259.138428,235.655869 1223.859375,266.147278 
	C1207.634888,280.169983 1189.903564,292.444550 1172.941162,305.622162 
	C1169.954102,307.942749 1167.036743,310.526154 1164.687134,313.467560 
	C1139.634277,344.831116 1114.702393,376.291351 1089.188721,407.988586 
	C1088.469116,408.573029 1088.297852,408.893982 1088.126587,409.214905 
	C1088.126587,409.214905 1088.107666,409.097595 1087.886963,409.185730 
	C1087.499756,409.601959 1087.333374,409.930084 1087.166992,410.258209 
	C1087.166992,410.258209 1087.144043,410.109436 1086.908203,410.213654 
	C1086.454712,410.886597 1086.237061,411.455322 1086.019409,412.024017 
	C1086.035645,412.366791 1085.913452,412.649780 1085.158081,413.067169 
	C1084.429443,413.775299 1084.195557,414.289307 1083.961548,414.803284 
	C1083.956177,415.003784 1083.950684,415.204285 1083.873291,415.697021 
z"/>
<path fill="#D97843" opacity="1.000000" stroke="none" 
	d="
M472.946594,164.508270 
	C472.883911,158.700928 472.943939,152.466309 473.377136,146.121399 
	C473.523315,152.034409 473.296326,158.057678 472.946594,164.508270 
z"/>
<path fill="#D97843" opacity="1.000000" stroke="none" 
	d="
M470.916504,187.522369 
	C471.131836,181.714661 471.482788,175.503174 472.179443,169.159027 
	C472.542145,169.862823 472.559143,170.699326 472.350159,172.065811 
	C472.069336,172.798050 472.043427,173.003952 472.046539,173.213516 
	C471.715057,177.848557 471.383606,182.483582 470.916504,187.522369 
z"/>
<path fill="#D97843" opacity="1.000000" stroke="none" 
	d="
M456.923065,310.518463 
	C457.065308,305.564697 457.328827,300.195160 457.839752,294.997559 
	C457.739563,300.147217 457.391968,305.124939 456.923065,310.518463 
z"/>
<path fill="#D97843" opacity="1.000000" stroke="none" 
	d="
M473.818634,132.565414 
	C473.240234,129.213547 472.778900,125.439232 472.579285,121.360268 
	C473.205902,124.751404 473.570801,128.447174 473.818634,132.565414 
z"/>
<path fill="#D97843" opacity="1.000000" stroke="none" 
	d="
M460.967896,270.544708 
	C461.182373,266.383575 461.521271,261.829437 462.199005,257.153900 
	C462.545410,257.554443 462.553040,258.076385 462.340637,259.091431 
	C462.065887,259.776520 462.036469,259.972351 462.032288,260.172028 
	C461.718994,263.498596 461.405670,266.825134 460.967896,270.544708 
z"/>
<path fill="#D97843" opacity="1.000000" stroke="none" 
	d="
M458.971497,288.548462 
	C459.100739,284.095428 459.357574,279.244781 459.963928,274.142334 
	C460.313446,273.890564 460.346130,274.235626 460.208069,274.808014 
	C460.070892,275.686829 460.071838,275.993286 460.072815,276.299713 
	C459.748260,280.250061 459.423706,284.200439 458.971497,288.548462 
z"/>
<path fill="#D97843" opacity="1.000000" stroke="none" 
	d="
M468.930634,205.535706 
	C469.035400,201.787643 469.271179,197.641281 469.830109,193.276978 
	C469.789398,197.085159 469.425537,201.111282 468.930634,205.535706 
z"/>
<path fill="#D97843" opacity="1.000000" stroke="none" 
	d="
M466.902313,222.522125 
	C467.054993,218.437393 467.342529,213.954803 467.995056,209.287735 
	C467.919098,213.443588 467.478119,217.783920 466.902313,222.522125 
z"/>
<path fill="#D97843" opacity="1.000000" stroke="none" 
	d="
M454.886414,337.521423 
	C454.815430,334.687195 454.886200,331.460358 455.310547,328.116638 
	C455.452148,331.042786 455.240143,334.085785 454.886414,337.521423 
z"/>
<path fill="#D97843" opacity="1.000000" stroke="none" 
	d="
M455.907166,325.525208 
	C455.548462,323.390015 455.315094,320.849426 455.099945,318.307281 
	C455.093842,318.235199 455.345703,318.061615 455.368958,318.079132 
	C455.589111,318.244843 455.785706,318.441772 456.040222,318.939697 
	C456.072601,321.206299 456.053864,323.162933 455.907166,325.525208 
z"/>
<path fill="#D97843" opacity="1.000000" stroke="none" 
	d="
M462.913635,254.566299 
	C462.809265,253.029007 462.833557,251.133438 463.166077,249.121384 
	C463.330292,250.739273 463.186279,252.473648 462.913635,254.566299 
z"/>
<path fill="#D97843" opacity="1.000000" stroke="none" 
	d="
M464.918762,238.563339 
	C464.808197,237.028915 464.826233,235.136230 465.149170,233.123291 
	C465.318481,234.737030 465.182892,236.471069 464.918762,238.563339 
z"/>
<path fill="#D97843" opacity="1.000000" stroke="none" 
	d="
M463.918182,246.599030 
	C463.645935,245.590698 463.517212,244.251953 463.388519,242.913223 
	C463.532379,242.975296 463.715759,243.002563 463.809326,243.108902 
	C463.909912,243.223206 463.926239,243.411682 464.011078,243.851715 
	C464.049133,244.846634 464.055420,245.557632 463.918182,246.599030 
z"/>
<path fill="#D97843" opacity="1.000000" stroke="none" 
	d="
M465.922882,230.551620 
	C465.725983,229.420746 465.679413,227.907791 465.951782,226.241547 
	C466.204865,227.448685 466.139038,228.809113 465.922882,230.551620 
z"/>
<path fill="#D97843" opacity="1.000000" stroke="none" 
	d="
M1011.397461,353.784363 
	C1011.359192,354.424133 1011.029480,355.163971 1010.358276,355.954987 
	C1010.379944,355.298920 1010.742920,354.591675 1011.397461,353.784363 
z"/>
<path fill="#D97843" opacity="1.000000" stroke="none" 
	d="
M471.394928,112.527298 
	C470.966949,112.016815 470.534729,111.118202 470.158081,109.797844 
	C470.605988,110.297119 470.998322,111.218147 471.394928,112.527298 
z"/>
<path fill="#D97843" opacity="1.000000" stroke="none" 
	d="
M472.162659,116.498924 
	C471.788666,116.865524 471.475922,116.931976 471.163177,116.998428 
	C471.254517,116.455162 471.345886,115.911896 471.652222,115.205643 
	C471.986115,115.428024 472.105011,115.813400 472.162659,116.498924 
z"/>
<path fill="#D97843" opacity="1.000000" stroke="none" 
	d="
M1084.216797,414.679626 
	C1084.195557,414.289307 1084.429443,413.775299 1084.939575,413.161682 
	C1084.968018,413.560028 1084.720093,414.057983 1084.216797,414.679626 
z"/>
<path fill="#D97843" opacity="1.000000" stroke="none" 
	d="
M1012.615234,352.004089 
	C1012.694153,352.457764 1012.498291,353.055420 1011.976562,353.732544 
	C1011.880615,353.257385 1012.110596,352.702728 1012.615234,352.004089 
z"/>
<path fill="#D97843" opacity="1.000000" stroke="none" 
	d="
M1009.733765,356.154236 
	C1009.771912,356.584351 1009.536072,357.150391 1008.996521,357.818542 
	C1008.948486,357.377167 1009.204163,356.833649 1009.733765,356.154236 
z"/>
<path fill="#D97843" opacity="1.000000" stroke="none" 
	d="
M1086.290039,411.888306 
	C1086.237061,411.455322 1086.454712,410.886597 1086.981567,410.230072 
	C1087.047485,410.679047 1086.804077,411.215820 1086.290039,411.888306 
z"/>
<path fill="#D97843" opacity="1.000000" stroke="none" 
	d="
M1179.045898,1153.682129 
	C1178.823608,1153.760742 1178.527588,1153.573853 1178.141357,1153.132568 
	C1178.358154,1153.057617 1178.665161,1153.237061 1179.045898,1153.682129 
z"/>
<path fill="#D97843" opacity="1.000000" stroke="none" 
	d="
M1178.049927,1152.672607 
	C1177.820679,1152.712402 1177.520264,1152.470947 1177.167480,1151.934326 
	C1177.403076,1151.889893 1177.690796,1152.140503 1178.049927,1152.672607 
z"/>
<path fill="#D97843" opacity="1.000000" stroke="none" 
	d="
M469.011292,104.670395 
	C468.759613,104.677574 468.487610,104.362747 468.190857,103.723869 
	C468.441040,103.716011 468.716003,104.032204 469.011292,104.670395 
z"/>
<path fill="#D97843" opacity="1.000000" stroke="none" 
	d="
M1180.046143,1154.681396 
	C1179.823730,1154.760742 1179.527832,1154.574463 1179.141113,1154.134155 
	C1179.357788,1154.058838 1179.665283,1154.237305 1180.046143,1154.681396 
z"/>
<path fill="#D97843" opacity="1.000000" stroke="none" 
	d="
M1181.046387,1155.681152 
	C1180.823853,1155.760620 1180.527710,1155.574463 1180.141113,1155.134277 
	C1180.358154,1155.058594 1180.665405,1155.237061 1181.046387,1155.681152 
z"/>
<path fill="#D97843" opacity="1.000000" stroke="none" 
	d="
M1182.047607,1156.680420 
	C1181.825195,1156.759888 1181.528564,1156.573975 1181.141602,1156.133789 
	C1181.358643,1156.057983 1181.666016,1156.236450 1182.047607,1156.680420 
z"/>
<path fill="#D97843" opacity="1.000000" stroke="none" 
	d="
M1183.049438,1157.678589 
	C1182.826904,1157.758423 1182.529907,1157.572754 1182.142578,1157.132690 
	C1182.359741,1157.056519 1182.667358,1157.234863 1183.049438,1157.678589 
z"/>
<path fill="#D97843" opacity="1.000000" stroke="none" 
	d="
M1184.053345,1158.673340 
	C1183.831299,1158.753784 1183.532959,1158.569580 1183.144043,1158.130615 
	C1183.361450,1158.053467 1183.669189,1158.231079 1184.053345,1158.673340 
z"/>
<path fill="#D97843" opacity="1.000000" stroke="none" 
	d="
M1185.059082,1159.668701 
	C1184.835693,1159.749878 1184.536743,1159.565796 1184.148438,1159.125732 
	C1184.367188,1159.047729 1184.675293,1159.225586 1185.059082,1159.668701 
z"/>
<path fill="#D97843" opacity="1.000000" stroke="none" 
	d="
M1186.063843,1160.665039 
	C1185.840576,1160.746216 1185.540527,1160.562622 1185.152100,1160.122070 
	C1185.371460,1160.043579 1185.679199,1160.221924 1186.063843,1160.665039 
z"/>
<path fill="#D97843" opacity="1.000000" stroke="none" 
	d="
M1187.112061,1161.661865 
	C1186.895874,1161.744873 1186.578613,1161.566162 1186.162598,1161.123535 
	C1186.379639,1161.039917 1186.695190,1161.219971 1187.112061,1161.661865 
z"/>
<path fill="#D97843" opacity="1.000000" stroke="none" 
	d="
M470.102966,107.657463 
	C469.826385,107.679214 469.526825,107.359619 469.198181,106.699120 
	C469.472748,106.677513 469.776398,106.996819 470.102966,107.657463 
z"/>
<path fill="#D97843" opacity="1.000000" stroke="none" 
	d="
M338.944061,419.332214 
	C339.168579,419.258911 339.467926,419.453583 339.851501,419.909851 
	C339.630127,419.981018 339.324493,419.790588 338.944061,419.332214 
z"/>
<path fill="#D97843" opacity="1.000000" stroke="none" 
	d="
M337.885498,418.343445 
	C338.095306,418.260895 338.414917,418.434265 338.837585,418.869141 
	C338.625519,418.953522 338.310425,418.776459 337.885498,418.343445 
z"/>
<path fill="#D97843" opacity="1.000000" stroke="none" 
	d="
M1087.442383,410.183777 
	C1087.333374,409.930084 1087.499756,409.601959 1087.944824,409.198944 
	C1088.054932,409.452484 1087.886475,409.780914 1087.442383,410.183777 
z"/>
<path fill="#D97843" opacity="1.000000" stroke="none" 
	d="
M1088.397217,409.128113 
	C1088.297852,408.893982 1088.469116,408.573029 1088.903198,408.153015 
	C1089.000000,408.383057 1088.833862,408.712189 1088.397217,409.128113 
z"/>
<path fill="#D97843" opacity="1.000000" stroke="none" 
	d="
M1013.581665,350.623047 
	C1013.710754,350.852722 1013.566833,351.250061 1013.135254,351.797516 
	C1013.001282,351.561981 1013.154968,351.176331 1013.581665,350.623047 
z"/>
<path fill="#D97843" opacity="1.000000" stroke="none" 
	d="
M1015.528564,347.824005 
	C1015.645142,348.064026 1015.493408,348.401123 1015.071899,348.838440 
	C1014.954895,348.599457 1015.107605,348.260254 1015.528564,347.824005 
z"/>
<path fill="#D97843" opacity="1.000000" stroke="none" 
	d="
M1015.872009,347.161987 
	C1016.167114,347.226074 1016.295532,347.429565 1016.423889,347.633057 
	C1016.304504,347.689453 1016.185059,347.745850 1015.860962,347.767883 
	C1015.656250,347.733490 1015.705261,347.301453 1015.872009,347.161987 
z"/>
<path fill="#EC8132" opacity="1.000000" stroke="none" 
	d="
M460.246948,276.097107 
	C460.071838,275.993286 460.070892,275.686829 460.074707,274.918640 
	C460.193298,274.936096 460.307190,275.415314 460.246948,276.097107 
z"/>
<path fill="#EC8132" opacity="1.000000" stroke="none" 
	d="
M462.170502,260.052856 
	C462.036469,259.972351 462.065887,259.776520 462.158508,259.444733 
	C462.449066,259.475647 462.486481,259.685211 462.170502,260.052856 
z"/>
<path fill="#EC8132" opacity="1.000000" stroke="none" 
	d="
M472.188293,173.086182 
	C472.043427,173.003952 472.069336,172.798050 472.164185,172.449341 
	C472.468933,172.478317 472.510895,172.696976 472.188293,173.086182 
z"/>
<path fill="none" opacity="1.000000" stroke="none" 
	d="
M810.048462,1089.836792 
	C823.194702,1103.137329 836.340942,1116.437866 849.872314,1130.133545 
	C850.847412,1130.981689 851.437317,1131.434692 852.027222,1131.887695 
	C854.172241,1134.174805 856.317322,1136.461792 858.850464,1139.144531 
	C859.838623,1139.996216 860.438721,1140.452271 861.038757,1140.908203 
	C861.038757,1140.908203 861.028809,1140.980347 861.065308,1140.976807 
	C860.295166,1142.261963 859.797241,1144.172119 858.636658,1144.748779 
	C831.024475,1158.471191 801.986633,1167.843384 771.607056,1173.162842 
	C749.542603,1177.026367 727.323730,1178.779907 704.963684,1177.952026 
	C629.835815,1175.170898 563.039856,1150.151611 505.256104,1101.924927 
	C455.041260,1060.015381 420.491638,1007.506287 401.691650,944.897522 
	C387.044342,896.118286 384.075500,846.451904 392.767731,796.199524 
	C404.194580,730.137390 433.086792,672.836182 479.682678,624.631226 
	C531.106995,571.431030 593.525391,538.951538 666.687561,528.150330 
	C738.133667,517.602478 806.316101,528.944397 869.816956,563.628052 
	C945.599365,605.019958 997.507935,667.050110 1025.335693,748.901978 
	C1037.625244,785.050354 1042.808716,822.388855 1041.682617,860.504211 
	C1040.399658,903.931213 1031.132690,945.625977 1013.035400,985.614746 
	C1007.989746,980.789368 1002.067749,976.221069 998.143311,970.323486 
	C975.126526,935.733704 942.780273,918.034302 901.610352,917.473633 
	C854.827271,916.836548 813.038635,944.814270 796.370056,987.463318 
	C783.900635,1019.368225 787.015869,1050.418091 804.118774,1080.076172 
	C805.112793,1081.800049 806.057617,1083.552368 807.019897,1085.944092 
	C807.585388,1087.164062 808.156250,1087.731079 808.727112,1088.298218 
	C808.727112,1088.298218 808.813538,1088.201416 808.791992,1088.480713 
	C809.196472,1089.119019 809.622437,1089.477905 810.048462,1089.836792 
z"/>
<path fill="#D97843" opacity="1.000000" stroke="none" 
	d="
M808.791321,1087.970947 
	C808.156250,1087.731079 807.585388,1087.164062 807.125366,1086.289795 
	C807.776001,1086.536255 808.315735,1087.089966 808.791321,1087.970947 
z"/>
<path fill="#D97843" opacity="1.000000" stroke="none" 
	d="
M860.990356,1140.602051 
	C860.438721,1140.452271 859.838623,1139.996216 859.166077,1139.259155 
	C859.709717,1139.417358 860.325867,1139.856567 860.990356,1140.602051 
z"/>
<path fill="#D97843" opacity="1.000000" stroke="none" 
	d="
M851.982422,1131.585449 
	C851.437317,1131.434692 850.847412,1130.981689 850.189209,1130.249756 
	C850.726501,1130.408203 851.332092,1130.845703 851.982422,1131.585449 
z"/>
<path fill="#D97843" opacity="1.000000" stroke="none" 
	d="
M810.003540,1089.539307 
	C809.622437,1089.477905 809.196472,1089.119019 808.727722,1088.472656 
	C809.109497,1088.537476 809.534058,1088.889648 810.003540,1089.539307 
z"/>
</svg>