<?xml version="1.0" encoding="utf-8"?>
<!-- Uploaded to: SVG Repo, www.svgrepo.com, Generator: SVG Repo Mixer Tools -->
<svg fill="#000000" width="800px" height="800px" viewBox="-9 0 32 32" version="1.1" xmlns="http://www.w3.org/2000/svg">
<title>italic</title>
<path d="M0.25 25.25l-0.25 1.125c0.094 0 0.25 0 0.5-0.031 0.188 0 0.5-0.031 0.844-0.063 1.094-0.125 1.938-0.188 2.469-0.156h2.719c0.594 0.063 1.094 0.125 1.438 0.188 0.313 0.031 0.531 0.031 0.594 0.031 0.094 0.063 0.188 0.063 0.25 0.063h0.344c0.094 0 0.219 0 0.375-0.031h0.156c0.031-0.031 0.094-0.031 0.156-0.031 0.063-0.094 0.094-0.219 0.094-0.313s0.063-0.156 0.094-0.219c0-0.125 0.031-0.219 0.031-0.375 0-0.094 0.031-0.25 0.031-0.406-0.25-0.031-0.469-0.094-0.625-0.125s-0.25-0.031-0.281-0.031c-0.531-0.063-1.031-0.156-1.656-0.281-0.031-0.094-0.031-0.156-0.031-0.219v-0.156l0.188-0.594 0.563-3.188 0.563-2.125 0.844-4.25c0.156-0.969 0.5-2.313 0.906-4.125 0.031-0.281 0.094-0.656 0.188-1.094 0.125-0.5 0.219-0.875 0.344-1.188 0.344-0.125 0.813-0.281 1.406-0.438 0.531-0.125 1.094-0.25 1.531-0.406 0.063-0.281 0.125-0.531 0.188-0.688 0-0.094 0.031-0.188 0.031-0.281 0.031-0.063 0.031-0.156 0.031-0.25-0.094 0-0.281 0-0.531 0.031-0.25 0-0.531 0.031-0.906 0.063-1.406 0.094-2.375 0.125-3 0.125h-0.344c-0.188 0-0.406-0.031-0.688-0.031l-4.406-0.188-0.281 1.406h0.25c0.063 0.031 0.219 0.031 0.313 0.031 0.969 0.063 1.594 0.188 2 0.375v0.563l-0.125 0.625-0.281 1.844-0.219 0.875-0.438 2.125c0 0.031-0.094 0.344-0.25 0.844-0.156 0.531-0.344 1.313-0.531 2.406l-0.156 0.875-0.813 3.625-0.375 1.844c-0.094 0.563-0.313 1.063-0.563 1.406-0.375 0.156-0.875 0.375-1.625 0.531-0.469 0.125-0.875 0.188-1.063 0.281z"></path>
</svg>