<?xml version="1.0" encoding="UTF-8" standalone="no"?>
<svg
   xmlns:dc="http://purl.org/dc/elements/1.1/"
   xmlns:cc="http://creativecommons.org/ns#"
   xmlns:rdf="http://www.w3.org/1999/02/22-rdf-syntax-ns#"
   xmlns:svg="http://www.w3.org/2000/svg"
   xmlns="http://www.w3.org/2000/svg"
   xmlns:sodipodi="http://sodipodi.sourceforge.net/DTD/sodipodi-0.dtd"
   xmlns:inkscape="http://www.inkscape.org/namespaces/inkscape"
   viewBox="0 -256 1800 1800"
   id="svg4363"
   version="1.1"
   inkscape:version="0.48.3.1 r9886"
   width="100%"
   height="100%"
   sodipodi:docname="strikethrough_font_awesome.svg">
  <metadata
     id="metadata4373">
    <rdf:RDF>
      <cc:Work
         rdf:about="">
        <dc:format>image/svg+xml</dc:format>
        <dc:type
           rdf:resource="http://purl.org/dc/dcmitype/StillImage" />
      </cc:Work>
    </rdf:RDF>
  </metadata>
  <defs
     id="defs4371" />
  <sodipodi:namedview
     pagecolor="#ffffff"
     bordercolor="#666666"
     borderopacity="1"
     objecttolerance="10"
     gridtolerance="10"
     guidetolerance="10"
     inkscape:pageopacity="0"
     inkscape:pageshadow="2"
     inkscape:window-width="640"
     inkscape:window-height="480"
     id="namedview4369"
     showgrid="false"
     inkscape:zoom="32"
     inkscape:cx="1804.7371"
     inkscape:cy="820.18569"
     inkscape:window-x="0"
     inkscape:window-y="25"
     inkscape:window-maximized="0"
     inkscape:current-layer="svg4363" />
  <g
     transform="matrix(1,0,0,-1,7.5932203,1278.2373)"
     id="g4365">
    <path
       d="m 1760,640 q 14,0 23,-9 9,-9 9,-23 v -64 q 0,-14 -9,-23 -9,-9 -23,-9 H 32 q -14,0 -23,9 -9,9 -9,23 v 64 q 0,14 9,23 9,9 23,9 H 1760 z M 483,704 q -28,35 -51,80 -48,97 -48,188 0,181 134,309 133,127 393,127 50,0 167,-19 66,-12 177,-48 10,-38 21,-118 14,-123 14,-183 0,-18 -5,-45 l -12,-3 -84,6 -14,2 q -50,149 -103,205 -88,91 -210,91 -114,0 -182,-59 -67,-58 -67,-146 0,-73 66,-140 66,-67 279,-129 69,-20 173,-66 58,-28 95,-52 H 483 z M 990,448 h 411 q 7,-39 7,-92 0,-111 -41,-212 -23,-55 -71,-104 -37,-35 -109,-81 -80,-48 -153,-66 -80,-21 -203,-21 -114,0 -195,23 l -140,40 q -57,16 -72,28 -8,8 -8,22 v 13 q 0,108 -2,156 -1,30 0,68 l 2,37 v 44 l 102,2 q 15,-34 30,-71 15,-37 22.5,-56 7.5,-19 12.5,-27 35,-57 80,-94 43,-36 105,-57 59,-22 132,-22 64,0 139,27 77,26 122,86 47,61 47,129 0,84 -81,157 -34,29 -137,71 z"
       id="path4367"
       inkscape:connector-curvature="0"
       style="fill:currentColor" />
  </g>
</svg>
